<?xml version="1.0" standalone="no"?>
<!DOCTYPE svg PUBLIC "-//W3C//DTD SVG 20010904//EN"
 "http://www.w3.org/TR/2001/REC-SVG-20010904/DTD/svg10.dtd">
<svg version="1.0" xmlns="http://www.w3.org/2000/svg"
 width="920.000000pt" height="876.000000pt" viewBox="0 0 920.000000 876.000000"
 preserveAspectRatio="xMidYMid meet">

<g transform="translate(0.000000,876.000000) scale(0.100000,-0.100000)"
fill="#000000" stroke="none">
<path d="M4375 8754 c-803 -43 -1573 -303 -2240 -755 -795 -540 -1395 -1339
-1700 -2265 -90 -274 -156 -586 -191 -906 -24 -211 -24 -685 -1 -896 83 -745
326 -1408 739 -2019 657 -970 1715 -1651 2870 -1847 272 -47 431 -59 748 -59
317 0 474 12 748 58 1094 186 2109 812 2772 1710 468 635 748 1356 837 2157
23 211 23 685 -1 896 -61 552 -197 1019 -437 1502 -292 586 -687 1074 -1206
1486 -639 509 -1433 832 -2259 919 -146 15 -541 26 -679 19z m-1047 -2149 c83
-20 131 -45 174 -93 49 -55 63 -101 62 -207 -1 -70 -7 -108 -27 -168 -75 -218
-250 -483 -482 -728 l-63 -67 76 -7 c192 -18 282 -99 282 -256 0 -181 -147
-435 -363 -626 -123 -108 -280 -170 -367 -144 -282 84 -332 831 -129 1940 16
90 28 165 26 167 -2 2 -130 -26 -284 -63 -155 -36 -288 -63 -297 -60 -20 8
-22 105 -3 131 15 21 45 27 447 101 250 46 373 65 565 88 86 11 325 6 383 -8z
m3517 -8 c14 -21 8 -43 -96 -337 -61 -173 -116 -318 -122 -322 -25 -16 -66 -8
-82 15 -14 21 -8 42 93 329 59 168 114 313 121 322 20 24 68 20 86 -7z m-1418
-299 c51 -56 273 -372 273 -389 0 -26 -35 -59 -63 -59 -13 0 -33 10 -44 23
-51 55 -273 371 -273 388 0 26 35 59 63 59 13 0 33 -10 44 -22z m716 -36 c14
-15 36 -146 37 -209 0 -21 -38 -53 -63 -53 -40 0 -56 29 -67 125 -13 117 -13
112 10 135 25 25 62 26 83 2z m-1283 -328 c16 -16 13 -29 -45 -223 -92 -306
-111 -660 -41 -764 27 -40 54 -45 90 -16 70 55 118 242 173 684 8 58 9 60 63
98 63 44 147 71 189 62 56 -12 57 -18 33 -228 -79 -676 -115 -884 -187 -1087
-83 -232 -225 -441 -363 -533 -91 -62 -162 -81 -271 -74 -110 7 -173 29 -226
81 -53 51 -65 97 -40 151 17 34 77 85 100 85 5 -1 28 -24 50 -52 94 -119 237
-170 327 -115 89 54 159 195 223 447 40 161 103 545 91 558 -4 3 -6 -1 -6 -9
0 -31 -71 -160 -112 -205 -74 -80 -159 -103 -243 -65 -38 17 -107 83 -117 112
-4 10 -12 5 -29 -16 -73 -94 -159 -147 -251 -153 -76 -6 -101 2 -148 44 -43
39 -75 110 -86 195 l-7 52 -17 -54 c-41 -135 -123 -252 -196 -279 -80 -31
-192 10 -244 88 -105 158 -114 474 -24 876 40 180 36 173 107 195 95 28 149
34 172 17 22 -16 21 -21 -33 -226 -81 -308 -95 -624 -32 -728 23 -37 67 -44
96 -15 67 67 131 322 169 668 19 171 17 168 129 225 75 38 139 41 160 8 13
-21 11 -39 -14 -168 -45 -224 -63 -395 -57 -545 7 -195 29 -235 111 -196 44
22 74 55 117 134 24 44 25 52 16 110 -21 143 11 438 72 672 43 161 42 161 99
179 109 37 172 40 202 10z m1543 -84 c43 -10 119 -41 170 -67 75 -38 109 -64
187 -143 79 -78 105 -112 143 -187 70 -135 90 -221 90 -373 -1 -153 -21 -240
-90 -373 -38 -74 -65 -110 -138 -183 -131 -133 -256 -199 -436 -230 -169 -29
-338 -2 -502 83 -74 38 -110 65 -183 138 -133 131 -199 256 -230 436 -29 169
-2 337 83 502 38 75 64 109 143 187 78 79 111 104 185 142 103 52 139 65 239
84 90 17 237 11 339 -16z m745 -17 c20 -18 26 -32 23 -64 0 -9 -40 -45 -87
-79 -76 -55 -90 -62 -113 -54 -31 11 -52 49 -42 76 9 24 159 137 182 138 9 0
26 -8 37 -17z m494 -500 c22 -19 24 -66 3 -86 -16 -16 -25 -18 -293 -48 -185
-21 -193 -21 -212 -4 -24 21 -26 67 -5 89 8 8 39 17 67 21 29 3 121 14 203 24
196 24 215 24 237 4z m-435 -554 c84 -33 108 -50 116 -80 6 -24 -28 -69 -53
-69 -27 0 -171 58 -192 77 -35 31 -11 103 33 103 10 0 53 -14 96 -31z m-1787
-337 c44 -33 55 -46 85 -104 38 -73 55 -160 55 -289 0 -294 -116 -656 -306
-952 l-44 -68 0 -132 c1 -218 39 -365 103 -395 24 -12 33 -11 70 7 49 24 87
69 131 155 31 59 32 64 25 146 -20 253 62 531 201 683 82 89 134 111 249 105
58 -3 101 -11 132 -25 l46 -21 7 82 c9 113 46 466 51 493 4 17 15 22 57 28 46
6 183 36 228 50 17 5 17 -9 0 -230 -22 -278 -84 -608 -155 -831 -33 -104 -35
-116 -35 -254 0 -312 37 -375 150 -261 25 25 63 82 85 126 38 76 42 80 76 83
55 5 66 -16 45 -83 -62 -197 -302 -374 -423 -311 -39 20 -67 64 -89 143 l-17
62 -28 -43 c-42 -63 -152 -164 -203 -186 -60 -27 -126 -35 -170 -20 -45 15
-116 85 -140 139 l-19 41 -19 -31 c-11 -17 -43 -55 -72 -84 -163 -163 -378
-151 -465 27 -44 90 -61 192 -61 374 0 85 -3 154 -6 154 -3 0 -22 -13 -42 -30
-20 -16 -58 -38 -83 -49 l-45 -20 -17 -78 c-51 -231 -201 -450 -365 -530 -73
-35 -164 -37 -235 -3 -43 21 -127 101 -127 122 0 5 -37 -29 -82 -75 -65 -66
-100 -93 -162 -123 -78 -38 -83 -39 -185 -39 -86 0 -115 4 -152 21 -135 62
-195 201 -206 474 -3 80 0 201 6 269 5 69 9 126 8 128 -3 2 -133 -82 -149 -96
-4 -3 -21 -68 -38 -145 -82 -357 -185 -599 -313 -734 -119 -124 -252 -156
-366 -91 -129 74 -215 200 -215 315 0 158 127 289 530 545 74 48 137 88 139
90 8 9 97 1089 90 1097 -1 1 -117 -29 -257 -68 -140 -38 -267 -70 -281 -70
-47 0 -93 91 -69 137 14 25 805 199 843 185 54 -21 64 -46 62 -151 -2 -118
-45 -549 -77 -771 -13 -91 -22 -167 -21 -169 2 -2 35 18 72 44 37 27 69 49 71
50 1 1 11 51 22 111 111 611 342 1026 606 1085 112 25 198 -16 228 -109 55
-172 13 -376 -116 -573 -72 -109 -253 -296 -400 -413 l-96 -77 -9 -127 c-14
-212 -9 -465 11 -562 19 -94 57 -173 97 -203 15 -10 47 -21 71 -24 91 -10 186
56 252 177 27 49 28 57 27 173 -3 265 63 475 191 613 57 61 138 114 175 114 7
0 33 14 57 32 89 62 215 49 297 -31 66 -65 90 -135 97 -278 2 -62 7 -113 11
-113 3 0 30 16 59 35 73 50 108 100 116 172 21 181 105 623 191 998 46 203 50
211 100 226 32 9 96 -10 135 -39z m1427 -114 c51 -56 273 -372 273 -389 0 -26
-35 -59 -63 -59 -13 0 -33 10 -44 23 -51 55 -273 371 -273 388 0 26 35 59 63
59 13 0 33 -10 44 -22z"/>
<path d="M2897 6490 c-38 -5 -71 -11 -74 -14 -9 -9 -102 -578 -127 -786 -45
-360 -58 -530 -59 -745 0 -264 18 -384 69 -445 32 -37 69 -39 139 -6 85 40
146 121 192 253 23 67 27 95 27 195 1 114 0 117 -29 159 -43 61 -105 90 -207
98 -81 6 -81 6 -100 42 -24 46 -16 67 52 145 132 150 231 302 326 499 107 221
151 389 125 483 -7 26 -20 55 -29 66 -45 50 -169 73 -305 56z"/>
<path d="M3831 4295 c-71 -65 -137 -218 -196 -456 -34 -140 -71 -347 -62 -355
2 -3 35 28 71 67 204 220 297 419 300 640 1 115 -7 139 -50 139 -13 0 -41 -16
-63 -35z"/>
<path d="M5332 3833 c-56 -230 -111 -528 -99 -539 8 -8 97 226 123 323 19 71
28 133 31 224 8 195 -6 193 -55 -8z"/>
<path d="M5946 3408 c-50 -52 -83 -134 -118 -289 -19 -87 -23 -133 -23 -279 0
-223 20 -290 86 -290 118 0 224 297 253 705 7 99 11 182 8 185 -2 3 -40 7 -83
9 l-80 3 -43 -44z"/>
<path d="M4459 3338 c-15 -56 2 -130 42 -192 27 -41 76 -86 93 -86 13 0 5 159
-10 210 -17 58 -61 110 -93 110 -15 0 -23 -10 -32 -42z"/>
<path d="M4257 3044 c-25 -139 -30 -231 -18 -332 31 -251 125 -359 222 -255
54 58 103 211 124 384 l7 56 -50 7 c-63 8 -158 55 -200 99 -18 18 -41 55 -51
82 l-18 48 -16 -89z"/>
<path d="M2759 2738 c-186 -139 -309 -285 -309 -368 0 -71 69 -190 126 -218
33 -15 37 -15 67 1 61 33 105 126 146 307 19 85 61 340 56 340 -1 0 -40 -28
-86 -62z"/>
</g>
</svg>
